<svg xmlns="http://www.w3.org/2000/svg" width="224.88" viewBox="0 0 224.88 75" height="75" version="1.0"><g fill="#F0F"><g><g><path d="M 22.496094 -11.917969 C 21.769531 -12.671875 20.910156 -13.019531 19.835938 -13.019531 L 5.960938 -13.019531 C 4.886719 -13.019531 4 -12.671875 3.273438 -11.917969 C 2.523438 -11.140625 2.148438 -10.28125 2.148438 -9.234375 L 2.148438 0 L 4.320312 0 L 4.320312 -5.421875 L 21.449219 -5.421875 L 21.449219 0 L 23.621094 0 L 23.621094 -9.234375 C 23.621094 -10.28125 23.246094 -11.140625 22.496094 -11.917969 Z M 21.449219 -7.597656 L 4.320312 -7.597656 L 4.320312 -9.234375 C 4.320312 -9.691406 4.484375 -10.066406 4.804688 -10.386719 C 5.046875 -10.628906 5.34375 -10.792969 5.636719 -10.84375 L 19.808594 -10.84375 C 20.265625 -10.84375 20.640625 -10.683594 20.964844 -10.363281 C 21.285156 -10.039062 21.449219 -9.664062 21.449219 -9.234375 Z M 21.449219 -7.597656" transform="translate(12.629 41.992)"/></g></g></g><g fill="#F0F"><g><g><path d="M 23.058594 -7.222656 C 23.433594 -7.839844 23.621094 -8.484375 23.621094 -9.234375 C 23.621094 -10.253906 23.246094 -11.140625 22.496094 -11.890625 C 21.769531 -12.644531 20.882812 -13.019531 19.808594 -13.019531 L 2.148438 -13.019531 L 2.148438 0 L 4.320312 0 L 4.320312 -5.421875 L 17.125 -5.421875 C 18.308594 -5.421875 19.328125 -4.992188 20.1875 -4.160156 C 21.019531 -3.300781 21.449219 -2.28125 21.449219 -1.101562 L 21.449219 0 L 23.621094 0 L 23.621094 -1.101562 C 23.621094 -2.980469 22.925781 -4.5625 21.554688 -5.851562 C 22.171875 -6.175781 22.683594 -6.628906 23.058594 -7.222656 Z M 20.964844 -8.078125 C 20.640625 -7.757812 20.265625 -7.597656 19.808594 -7.597656 L 4.320312 -7.597656 L 4.320312 -10.84375 L 19.808594 -10.84375 C 20.265625 -10.84375 20.640625 -10.683594 20.964844 -10.363281 C 21.285156 -10.039062 21.449219 -9.664062 21.449219 -9.234375 C 21.449219 -8.777344 21.285156 -8.375 20.964844 -8.078125 Z M 20.964844 -8.078125" transform="translate(38.399 41.992)"/></g></g></g><g fill="#F0F"><g><g><path d="M 21.449219 -3.785156 C 21.449219 -3.355469 21.285156 -2.980469 20.964844 -2.65625 C 20.640625 -2.335938 20.265625 -2.175781 19.808594 -2.175781 L 5.636719 -2.175781 C 5.34375 -2.226562 5.046875 -2.390625 4.804688 -2.628906 C 4.484375 -2.953125 4.320312 -3.328125 4.320312 -3.785156 L 4.320312 -9.234375 C 4.320312 -9.691406 4.484375 -10.066406 4.804688 -10.386719 C 5.128906 -10.710938 5.503906 -10.871094 5.960938 -10.871094 L 19.808594 -10.871094 C 20.265625 -10.871094 20.640625 -10.710938 20.964844 -10.386719 C 21.285156 -10.066406 21.449219 -9.691406 21.449219 -9.234375 L 23.621094 -9.234375 C 23.621094 -10.28125 23.246094 -11.167969 22.496094 -11.917969 C 21.742188 -12.671875 20.882812 -13.019531 19.808594 -13.019531 L 5.933594 -13.019531 C 4.859375 -13.019531 4 -12.671875 3.273438 -11.917969 C 2.523438 -11.140625 2.148438 -10.308594 2.148438 -9.289062 L 2.148438 -3.785156 C 2.148438 -2.738281 2.523438 -1.851562 3.273438 -1.101562 C 4 -0.347656 4.886719 0 5.960938 0 L 19.835938 0 C 20.910156 0 21.769531 -0.347656 22.496094 -1.101562 C 23.246094 -1.878906 23.621094 -2.738281 23.621094 -3.785156 Z M 21.449219 -3.785156" transform="translate(64.168 41.992)"/></g></g></g><g fill="#F0F"><g><g><path d="M 4.804688 -10.386719 C 5.046875 -10.628906 5.34375 -10.792969 5.636719 -10.84375 L 23.621094 -10.84375 L 23.621094 -13.019531 L 5.960938 -13.019531 C 4.886719 -13.019531 4 -12.671875 3.273438 -11.917969 C 2.523438 -11.140625 2.148438 -10.28125 2.148438 -9.234375 L 2.148438 -3.785156 C 2.148438 -2.738281 2.523438 -1.878906 3.273438 -1.101562 C 4 -0.347656 4.886719 0 5.960938 0 L 23.621094 0 L 23.621094 -2.175781 L 5.636719 -2.175781 C 5.34375 -2.226562 5.046875 -2.390625 4.804688 -2.628906 C 4.484375 -2.953125 4.320312 -3.328125 4.320312 -3.785156 L 4.320312 -5.421875 L 21.339844 -5.421875 L 21.339844 -7.597656 L 4.320312 -7.597656 L 4.320312 -9.234375 C 4.320312 -9.691406 4.484375 -10.066406 4.804688 -10.386719 Z M 4.804688 -10.386719" transform="translate(89.938 41.992)"/></g></g></g><g fill="#F0F"><g><g><path d="M 23.621094 -13.019531 L 23.621094 -10.84375 L 14.011719 -10.84375 L 14.011719 0 L 11.839844 0 L 11.839844 -10.84375 L 2.148438 -10.84375 L 2.148438 -13.019531 Z M 23.621094 -13.019531" transform="translate(131.814 41.992)"/></g></g></g><g fill="#F0F"><g><g><path d="M 22.496094 -11.917969 C 21.769531 -12.671875 20.910156 -13.019531 19.835938 -13.019531 L 5.960938 -13.019531 C 4.886719 -13.019531 4 -12.671875 3.273438 -11.917969 C 2.523438 -11.140625 2.148438 -10.28125 2.148438 -9.234375 L 2.148438 0 L 4.320312 0 L 4.320312 -5.421875 L 21.449219 -5.421875 L 21.449219 0 L 23.621094 0 L 23.621094 -9.234375 C 23.621094 -10.28125 23.246094 -11.140625 22.496094 -11.917969 Z M 21.449219 -7.597656 L 4.320312 -7.597656 L 4.320312 -9.234375 C 4.320312 -9.691406 4.484375 -10.066406 4.804688 -10.386719 C 5.046875 -10.628906 5.34375 -10.792969 5.636719 -10.84375 L 19.808594 -10.84375 C 20.265625 -10.84375 20.640625 -10.683594 20.964844 -10.363281 C 21.285156 -10.039062 21.449219 -9.664062 21.449219 -9.234375 Z M 21.449219 -7.597656" transform="translate(157.583 41.992)"/></g></g></g><g fill="#F0F"><g><g><path d="M 21.449219 0 L 23.621094 0 L 23.621094 -9.261719 C 23.621094 -10.308594 23.246094 -11.167969 22.496094 -11.945312 C 21.769531 -12.695312 20.910156 -13.046875 19.835938 -13.046875 L 5.960938 -13.046875 C 4.886719 -13.046875 4 -12.695312 3.273438 -11.945312 C 2.523438 -11.167969 2.148438 -10.308594 2.148438 -9.261719 L 2.148438 0 L 4.320312 0 L 4.320312 -9.261719 C 4.320312 -9.71875 4.484375 -10.09375 4.804688 -10.414062 C 5.046875 -10.65625 5.34375 -10.816406 5.636719 -10.871094 L 19.808594 -10.871094 C 20.265625 -10.871094 20.640625 -10.710938 20.964844 -10.386719 C 21.285156 -10.066406 21.449219 -9.691406 21.449219 -9.261719 Z M 21.449219 0" transform="translate(183.353 41.992)"/></g></g></g><g fill="#0FF"><g><g><path d="M 22.496094 -11.917969 C 21.769531 -12.671875 20.910156 -13.019531 19.835938 -13.019531 L 5.960938 -13.019531 C 4.886719 -13.019531 4 -12.671875 3.273438 -11.917969 C 2.523438 -11.140625 2.148438 -10.28125 2.148438 -9.234375 L 2.148438 0 L 4.320312 0 L 4.320312 -5.421875 L 21.449219 -5.421875 L 21.449219 0 L 23.621094 0 L 23.621094 -9.234375 C 23.621094 -10.28125 23.246094 -11.140625 22.496094 -11.917969 Z M 21.449219 -7.597656 L 4.320312 -7.597656 L 4.320312 -9.234375 C 4.320312 -9.691406 4.484375 -10.066406 4.804688 -10.386719 C 5.046875 -10.628906 5.34375 -10.792969 5.636719 -10.84375 L 19.808594 -10.84375 C 20.265625 -10.84375 20.640625 -10.683594 20.964844 -10.363281 C 21.285156 -10.039062 21.449219 -9.664062 21.449219 -9.234375 Z M 21.449219 -7.597656" transform="translate(15.677 41.06)"/></g></g></g><g fill="#0FF"><g><g><path d="M 23.058594 -7.222656 C 23.433594 -7.839844 23.621094 -8.484375 23.621094 -9.234375 C 23.621094 -10.253906 23.246094 -11.140625 22.496094 -11.890625 C 21.769531 -12.644531 20.882812 -13.019531 19.808594 -13.019531 L 2.148438 -13.019531 L 2.148438 0 L 4.320312 0 L 4.320312 -5.421875 L 17.125 -5.421875 C 18.308594 -5.421875 19.328125 -4.992188 20.1875 -4.160156 C 21.019531 -3.300781 21.449219 -2.28125 21.449219 -1.101562 L 21.449219 0 L 23.621094 0 L 23.621094 -1.101562 C 23.621094 -2.980469 22.925781 -4.5625 21.554688 -5.851562 C 22.171875 -6.175781 22.683594 -6.628906 23.058594 -7.222656 Z M 20.964844 -8.078125 C 20.640625 -7.757812 20.265625 -7.597656 19.808594 -7.597656 L 4.320312 -7.597656 L 4.320312 -10.84375 L 19.808594 -10.84375 C 20.265625 -10.84375 20.640625 -10.683594 20.964844 -10.363281 C 21.285156 -10.039062 21.449219 -9.664062 21.449219 -9.234375 C 21.449219 -8.777344 21.285156 -8.375 20.964844 -8.078125 Z M 20.964844 -8.078125" transform="translate(41.447 41.06)"/></g></g></g><g fill="#0FF"><g><g><path d="M 21.449219 -3.785156 C 21.449219 -3.355469 21.285156 -2.980469 20.964844 -2.65625 C 20.640625 -2.335938 20.265625 -2.175781 19.808594 -2.175781 L 5.636719 -2.175781 C 5.34375 -2.226562 5.046875 -2.390625 4.804688 -2.628906 C 4.484375 -2.953125 4.320312 -3.328125 4.320312 -3.785156 L 4.320312 -9.234375 C 4.320312 -9.691406 4.484375 -10.066406 4.804688 -10.386719 C 5.128906 -10.710938 5.503906 -10.871094 5.960938 -10.871094 L 19.808594 -10.871094 C 20.265625 -10.871094 20.640625 -10.710938 20.964844 -10.386719 C 21.285156 -10.066406 21.449219 -9.691406 21.449219 -9.234375 L 23.621094 -9.234375 C 23.621094 -10.28125 23.246094 -11.167969 22.496094 -11.917969 C 21.742188 -12.671875 20.882812 -13.019531 19.808594 -13.019531 L 5.933594 -13.019531 C 4.859375 -13.019531 4 -12.671875 3.273438 -11.917969 C 2.523438 -11.140625 2.148438 -10.308594 2.148438 -9.289062 L 2.148438 -3.785156 C 2.148438 -2.738281 2.523438 -1.851562 3.273438 -1.101562 C 4 -0.347656 4.886719 0 5.960938 0 L 19.835938 0 C 20.910156 0 21.769531 -0.347656 22.496094 -1.101562 C 23.246094 -1.878906 23.621094 -2.738281 23.621094 -3.785156 Z M 21.449219 -3.785156" transform="translate(67.217 41.06)"/></g></g></g><g fill="#0FF"><g><g><path d="M 4.804688 -10.386719 C 5.046875 -10.628906 5.34375 -10.792969 5.636719 -10.84375 L 23.621094 -10.84375 L 23.621094 -13.019531 L 5.960938 -13.019531 C 4.886719 -13.019531 4 -12.671875 3.273438 -11.917969 C 2.523438 -11.140625 2.148438 -10.28125 2.148438 -9.234375 L 2.148438 -3.785156 C 2.148438 -2.738281 2.523438 -1.878906 3.273438 -1.101562 C 4 -0.347656 4.886719 0 5.960938 0 L 23.621094 0 L 23.621094 -2.175781 L 5.636719 -2.175781 C 5.34375 -2.226562 5.046875 -2.390625 4.804688 -2.628906 C 4.484375 -2.953125 4.320312 -3.328125 4.320312 -3.785156 L 4.320312 -5.421875 L 21.339844 -5.421875 L 21.339844 -7.597656 L 4.320312 -7.597656 L 4.320312 -9.234375 C 4.320312 -9.691406 4.484375 -10.066406 4.804688 -10.386719 Z M 4.804688 -10.386719" transform="translate(92.986 41.06)"/></g></g></g><g fill="#0FF"><g><g><path d="M 23.621094 -13.019531 L 23.621094 -10.84375 L 14.011719 -10.84375 L 14.011719 0 L 11.839844 0 L 11.839844 -10.84375 L 2.148438 -10.84375 L 2.148438 -13.019531 Z M 23.621094 -13.019531" transform="translate(134.862 41.06)"/></g></g></g><g fill="#0FF"><g><g><path d="M 22.496094 -11.917969 C 21.769531 -12.671875 20.910156 -13.019531 19.835938 -13.019531 L 5.960938 -13.019531 C 4.886719 -13.019531 4 -12.671875 3.273438 -11.917969 C 2.523438 -11.140625 2.148438 -10.28125 2.148438 -9.234375 L 2.148438 0 L 4.320312 0 L 4.320312 -5.421875 L 21.449219 -5.421875 L 21.449219 0 L 23.621094 0 L 23.621094 -9.234375 C 23.621094 -10.28125 23.246094 -11.140625 22.496094 -11.917969 Z M 21.449219 -7.597656 L 4.320312 -7.597656 L 4.320312 -9.234375 C 4.320312 -9.691406 4.484375 -10.066406 4.804688 -10.386719 C 5.046875 -10.628906 5.34375 -10.792969 5.636719 -10.84375 L 19.808594 -10.84375 C 20.265625 -10.84375 20.640625 -10.683594 20.964844 -10.363281 C 21.285156 -10.039062 21.449219 -9.664062 21.449219 -9.234375 Z M 21.449219 -7.597656" transform="translate(160.631 41.06)"/></g></g></g><g fill="#0FF"><g><g><path d="M 21.449219 0 L 23.621094 0 L 23.621094 -9.261719 C 23.621094 -10.308594 23.246094 -11.167969 22.496094 -11.945312 C 21.769531 -12.695312 20.910156 -13.046875 19.835938 -13.046875 L 5.960938 -13.046875 C 4.886719 -13.046875 4 -12.695312 3.273438 -11.945312 C 2.523438 -11.167969 2.148438 -10.308594 2.148438 -9.261719 L 2.148438 0 L 4.320312 0 L 4.320312 -9.261719 C 4.320312 -9.71875 4.484375 -10.09375 4.804688 -10.414062 C 5.046875 -10.65625 5.34375 -10.816406 5.636719 -10.871094 L 19.808594 -10.871094 C 20.265625 -10.871094 20.640625 -10.710938 20.964844 -10.386719 C 21.285156 -10.066406 21.449219 -9.691406 21.449219 -9.261719 Z M 21.449219 0" transform="translate(186.401 41.06)"/></g></g></g><g fill="#FF1616"><g><g><path d="M 22.496094 -11.917969 C 21.769531 -12.671875 20.910156 -13.019531 19.835938 -13.019531 L 5.960938 -13.019531 C 4.886719 -13.019531 4 -12.671875 3.273438 -11.917969 C 2.523438 -11.140625 2.148438 -10.28125 2.148438 -9.234375 L 2.148438 0 L 4.320312 0 L 4.320312 -5.421875 L 21.449219 -5.421875 L 21.449219 0 L 23.621094 0 L 23.621094 -9.234375 C 23.621094 -10.28125 23.246094 -11.140625 22.496094 -11.917969 Z M 21.449219 -7.597656 L 4.320312 -7.597656 L 4.320312 -9.234375 C 4.320312 -9.691406 4.484375 -10.066406 4.804688 -10.386719 C 5.046875 -10.628906 5.34375 -10.792969 5.636719 -10.84375 L 19.808594 -10.84375 C 20.265625 -10.84375 20.640625 -10.683594 20.964844 -10.363281 C 21.285156 -10.039062 21.449219 -9.664062 21.449219 -9.234375 Z M 21.449219 -7.597656" transform="translate(14.153 41.526)"/></g></g></g><g fill="#FF1616"><g><g><path d="M 23.058594 -7.222656 C 23.433594 -7.839844 23.621094 -8.484375 23.621094 -9.234375 C 23.621094 -10.253906 23.246094 -11.140625 22.496094 -11.890625 C 21.769531 -12.644531 20.882812 -13.019531 19.808594 -13.019531 L 2.148438 -13.019531 L 2.148438 0 L 4.320312 0 L 4.320312 -5.421875 L 17.125 -5.421875 C 18.308594 -5.421875 19.328125 -4.992188 20.1875 -4.160156 C 21.019531 -3.300781 21.449219 -2.28125 21.449219 -1.101562 L 21.449219 0 L 23.621094 0 L 23.621094 -1.101562 C 23.621094 -2.980469 22.925781 -4.5625 21.554688 -5.851562 C 22.171875 -6.175781 22.683594 -6.628906 23.058594 -7.222656 Z M 20.964844 -8.078125 C 20.640625 -7.757812 20.265625 -7.597656 19.808594 -7.597656 L 4.320312 -7.597656 L 4.320312 -10.84375 L 19.808594 -10.84375 C 20.265625 -10.84375 20.640625 -10.683594 20.964844 -10.363281 C 21.285156 -10.039062 21.449219 -9.664062 21.449219 -9.234375 C 21.449219 -8.777344 21.285156 -8.375 20.964844 -8.078125 Z M 20.964844 -8.078125" transform="translate(39.923 41.526)"/></g></g></g><g fill="#FF1616"><g><g><path d="M 21.449219 -3.785156 C 21.449219 -3.355469 21.285156 -2.980469 20.964844 -2.65625 C 20.640625 -2.335938 20.265625 -2.175781 19.808594 -2.175781 L 5.636719 -2.175781 C 5.34375 -2.226562 5.046875 -2.390625 4.804688 -2.628906 C 4.484375 -2.953125 4.320312 -3.328125 4.320312 -3.785156 L 4.320312 -9.234375 C 4.320312 -9.691406 4.484375 -10.066406 4.804688 -10.386719 C 5.128906 -10.710938 5.503906 -10.871094 5.960938 -10.871094 L 19.808594 -10.871094 C 20.265625 -10.871094 20.640625 -10.710938 20.964844 -10.386719 C 21.285156 -10.066406 21.449219 -9.691406 21.449219 -9.234375 L 23.621094 -9.234375 C 23.621094 -10.28125 23.246094 -11.167969 22.496094 -11.917969 C 21.742188 -12.671875 20.882812 -13.019531 19.808594 -13.019531 L 5.933594 -13.019531 C 4.859375 -13.019531 4 -12.671875 3.273438 -11.917969 C 2.523438 -11.140625 2.148438 -10.308594 2.148438 -9.289062 L 2.148438 -3.785156 C 2.148438 -2.738281 2.523438 -1.851562 3.273438 -1.101562 C 4 -0.347656 4.886719 0 5.960938 0 L 19.835938 0 C 20.910156 0 21.769531 -0.347656 22.496094 -1.101562 C 23.246094 -1.878906 23.621094 -2.738281 23.621094 -3.785156 Z M 21.449219 -3.785156" transform="translate(65.692 41.526)"/></g></g></g><g fill="#FF1616"><g><g><path d="M 4.804688 -10.386719 C 5.046875 -10.628906 5.34375 -10.792969 5.636719 -10.84375 L 23.621094 -10.84375 L 23.621094 -13.019531 L 5.960938 -13.019531 C 4.886719 -13.019531 4 -12.671875 3.273438 -11.917969 C 2.523438 -11.140625 2.148438 -10.28125 2.148438 -9.234375 L 2.148438 -3.785156 C 2.148438 -2.738281 2.523438 -1.878906 3.273438 -1.101562 C 4 -0.347656 4.886719 0 5.960938 0 L 23.621094 0 L 23.621094 -2.175781 L 5.636719 -2.175781 C 5.34375 -2.226562 5.046875 -2.390625 4.804688 -2.628906 C 4.484375 -2.953125 4.320312 -3.328125 4.320312 -3.785156 L 4.320312 -5.421875 L 21.339844 -5.421875 L 21.339844 -7.597656 L 4.320312 -7.597656 L 4.320312 -9.234375 C 4.320312 -9.691406 4.484375 -10.066406 4.804688 -10.386719 Z M 4.804688 -10.386719" transform="translate(91.462 41.526)"/></g></g></g><g fill="#FF1616"><g><g><path d="M 23.621094 -13.019531 L 23.621094 -10.84375 L 14.011719 -10.84375 L 14.011719 0 L 11.839844 0 L 11.839844 -10.84375 L 2.148438 -10.84375 L 2.148438 -13.019531 Z M 23.621094 -13.019531" transform="translate(133.338 41.526)"/></g></g></g><g fill="#FF1616"><g><g><path d="M 22.496094 -11.917969 C 21.769531 -12.671875 20.910156 -13.019531 19.835938 -13.019531 L 5.960938 -13.019531 C 4.886719 -13.019531 4 -12.671875 3.273438 -11.917969 C 2.523438 -11.140625 2.148438 -10.28125 2.148438 -9.234375 L 2.148438 0 L 4.320312 0 L 4.320312 -5.421875 L 21.449219 -5.421875 L 21.449219 0 L 23.621094 0 L 23.621094 -9.234375 C 23.621094 -10.28125 23.246094 -11.140625 22.496094 -11.917969 Z M 21.449219 -7.597656 L 4.320312 -7.597656 L 4.320312 -9.234375 C 4.320312 -9.691406 4.484375 -10.066406 4.804688 -10.386719 C 5.046875 -10.628906 5.34375 -10.792969 5.636719 -10.84375 L 19.808594 -10.84375 C 20.265625 -10.84375 20.640625 -10.683594 20.964844 -10.363281 C 21.285156 -10.039062 21.449219 -9.664062 21.449219 -9.234375 Z M 21.449219 -7.597656" transform="translate(159.107 41.526)"/></g></g></g><g fill="#FF1616"><g><g><path d="M 21.449219 0 L 23.621094 0 L 23.621094 -9.261719 C 23.621094 -10.308594 23.246094 -11.167969 22.496094 -11.945312 C 21.769531 -12.695312 20.910156 -13.046875 19.835938 -13.046875 L 5.960938 -13.046875 C 4.886719 -13.046875 4 -12.695312 3.273438 -11.945312 C 2.523438 -11.167969 2.148438 -10.308594 2.148438 -9.261719 L 2.148438 0 L 4.320312 0 L 4.320312 -9.261719 C 4.320312 -9.71875 4.484375 -10.09375 4.804688 -10.414062 C 5.046875 -10.65625 5.34375 -10.816406 5.636719 -10.871094 L 19.808594 -10.871094 C 20.265625 -10.871094 20.640625 -10.710938 20.964844 -10.386719 C 21.285156 -10.066406 21.449219 -9.691406 21.449219 -9.261719 Z M 21.449219 0" transform="translate(184.877 41.526)"/></g></g></g></svg>